<svg width="48" height="48" viewBox="0 0 48 48" fill="none" xmlns="http://www.w3.org/2000/svg">
<path fill-rule="evenodd" clip-rule="evenodd" d="M24 0C10.7464 0 0 11.0149 0 24.612C0 35.4876 6.87857 44.7024 16.4143 47.9597C17.6143 48.1847 18.0536 47.4239 18.0536 46.7703C18.0536 46.181 18.0321 44.6381 18.0214 42.5808C11.3464 44.0702 9.93214 39.2806 9.93214 39.2806C8.83929 36.4412 7.26429 35.6805 7.26429 35.6805C5.08929 34.1482 7.425 34.1804 7.425 34.1804C9.83571 34.3518 11.1 36.7198 11.1 36.7198C13.2429 40.4807 16.7143 39.3985 18.0857 38.7663C18.3 37.1805 18.9214 36.0876 19.6071 35.4769C14.2821 34.8554 8.67857 32.7446 8.67857 23.3155C8.67857 20.6261 9.61071 18.4295 11.1429 16.7152C10.8964 16.0937 10.0714 13.5864 11.3786 10.2005C11.3786 10.2005 13.3929 9.53622 17.9786 12.7185C19.8964 12.1721 21.9429 11.9042 23.9893 11.8935C26.025 11.9042 28.0821 12.1721 30 12.7185C34.5857 9.53622 36.5893 10.2005 36.5893 10.2005C37.8964 13.5864 37.0714 16.0937 36.825 16.7152C38.3571 18.4403 39.2893 20.6368 39.2893 23.3155C39.2893 32.766 33.675 34.8447 28.3286 35.4554C29.1857 36.2162 29.9571 37.7163 29.9571 40.0093C29.9571 43.2987 29.925 45.956 29.925 46.7596C29.925 47.4132 30.3536 48.1847 31.575 47.9382C41.1321 44.6916 48 35.4769 48 24.612C48 11.0149 37.2536 0 24 0Z" fill="#212121"/>
</svg>
