<svg width="48" height="48" viewBox="0 0 48 48" fill="none" xmlns="http://www.w3.org/2000/svg">
<path d="M25.8108 21.6495V21.5752C25.7952 21.6003 25.7787 21.6254 25.7622 21.6495H25.8108Z" fill="#212121"/>
<path d="M44.4514 0H3.54574C1.58786 0 0 1.54023 0 3.4385V44.5625C0 46.4598 1.58786 48 3.54574 48H44.4514C46.4121 48 48 46.4588 48 44.5625V3.4385C48 1.53927 46.4112 0 44.4514 0ZM14.5491 40.1821H7.2993V18.5079H14.5491V40.1821ZM10.9247 15.5471H10.8761C8.44431 15.5471 6.87102 13.8823 6.87102 11.8026C6.87102 9.67662 8.49287 8.05823 10.9723 8.05823C13.4526 8.05823 14.9783 9.67662 15.0269 11.8026C15.0269 13.8823 13.4517 15.5471 10.9247 15.5471ZM40.692 40.1821H33.4422V28.584C33.4422 25.6715 32.3933 23.6835 29.7702 23.6835C27.7676 23.6835 26.5751 25.0239 26.0497 26.319C25.8583 26.7813 25.8117 27.4279 25.8117 28.0764V40.1811H18.5619C18.5619 40.1811 18.6571 20.5383 18.5619 18.5069H25.8117V21.5748C26.7751 20.0983 28.498 17.9954 32.3467 17.9954C37.1161 17.9954 40.6929 21.0942 40.6929 27.7521V40.1821H40.692Z" fill="#212121"/>
</svg>
