<svg width="48" height="48" viewBox="0 0 48 48" fill="none" xmlns="http://www.w3.org/2000/svg">
<path d="M48 5.68197C46.2354 6.64715 44.3364 7.2982 42.3438 7.58955C44.3783 6.09082 45.9382 3.71684 46.6739 0.884848C44.771 2.27447 42.6644 3.28281 40.4204 3.82715C38.6247 1.47235 36.065 0 33.2326 0C27.7947 0 23.3857 5.42539 23.3857 12.1181C23.3857 13.0665 23.4724 13.9909 23.6409 14.8794C15.4563 14.3734 8.19926 9.54988 3.34206 2.21811C2.49437 4.00699 2.00913 6.08842 2.00913 8.31133C2.00913 12.515 3.7474 16.2246 6.38987 18.3972C4.77632 18.3336 3.25729 17.7881 1.92924 16.8805C1.92826 16.9308 1.92826 16.9824 1.92826 17.0339C1.92826 22.9041 5.32294 27.8008 9.82839 28.9158C9.00213 29.1916 8.13203 29.3403 7.23366 29.3403C6.59838 29.3403 5.98161 29.2647 5.38043 29.122C6.63443 33.936 10.2708 37.4406 14.5794 37.5377C11.2091 40.7881 6.96377 42.7257 2.34919 42.7257C1.55508 42.7257 0.77072 42.6681 0 42.5554C4.3593 45.9953 9.53511 48 15.0958 48C33.2102 48 43.1145 29.5357 43.1145 13.5221C43.1145 12.997 43.1058 12.473 43.0873 11.9526C45.0107 10.2477 46.6807 8.1123 48 5.68197Z" fill="#212121"/>
</svg>
