<svg width="48" height="48" viewBox="0 0 48 48" fill="none" xmlns="http://www.w3.org/2000/svg">
<path d="M24 48C37.2548 48 48 37.2548 48 24C48 10.7452 37.2548 0 24 0C10.7452 0 0 10.7452 0 24C0 37.2548 10.7452 48 24 48Z" fill="#212121"/>
<path fill-rule="evenodd" clip-rule="evenodd" d="M24.7857 29.7365C23.8614 30.6367 22.9452 31.5221 22.0374 32.4143C21.7201 32.7269 21.3633 32.8997 20.9078 32.8757C20.5969 32.8591 20.423 32.7226 20.3276 32.4277C19.6321 30.2693 18.9265 28.1162 18.2348 25.9557C18.1676 25.7461 18.0684 25.6442 17.8561 25.5786C16.2177 25.0783 14.5825 24.5663 12.95 24.0474C12.6988 23.9674 12.4454 23.8629 12.2284 23.7151C11.8929 23.4879 11.8438 23.1173 12.1446 22.8506C12.4225 22.6047 12.7542 22.3903 13.0988 22.2538C15.1014 21.4602 17.1148 20.6922 19.1249 19.9173C24.2262 17.9477 29.3276 15.9797 34.4294 14.0101C35.3996 13.6351 36.1452 14.1631 36.0444 15.2122C35.9798 15.8831 35.806 16.5434 35.6657 17.2058C34.558 22.4362 33.4492 27.6671 32.3356 32.8965C32.071 34.1381 31.199 34.4623 30.1772 33.7087C28.4657 32.4474 26.7558 31.1818 25.0454 29.9183C24.9638 29.8591 24.879 29.8021 24.7857 29.7365ZM20.9441 31.3247C20.9633 31.3194 20.9825 31.3141 21.0017 31.3093C21.0124 31.2602 21.0278 31.2122 21.0321 31.1637C21.142 29.9781 21.2582 28.793 21.3537 27.6053C21.375 27.3407 21.4657 27.153 21.6646 26.9749C23.2422 25.5642 24.8102 24.1445 26.3814 22.7279C28.1206 21.1594 29.8604 19.5925 31.5932 18.0175C31.7004 17.9205 31.7452 17.7551 31.8188 17.6207C31.6556 17.6031 31.4806 17.5375 31.3324 17.5759C31.1302 17.6282 30.9388 17.7455 30.7585 17.8591C26.9201 20.2767 23.0849 22.6986 19.2438 25.1114C19.0268 25.2479 18.9862 25.3637 19.0689 25.6021C19.3521 26.4154 19.6097 27.2362 19.8769 28.0554C20.2326 29.1455 20.5884 30.2351 20.9441 31.3247Z" fill="#C5CAE9"/>
</svg>
